# xmcd CD database file
#
# Track frame offsets:
#	150
#	30737
#	53250
#	72750
#	90225
#	98437
#	125495
#
# Disc length: 1939 seconds
#
# Revision: 0
# Processed by: cddbd v1.5.1PL0 Copyright (c) Steve Scherf et al.
# Submitted via: CDex 1.51
#
DISCID=45079107
DTITLE=Kazco - 深呼吸
DYEAR=2001
DGENRE=Blues
TTITLE0=コエヲキカセテ
TTITLE1=それでもね
TTITLE2=ImitationL Love
TTITLE3=宇宙
TTITLE4=I believe（interlude）
TTITLE5=Stribgs Of Heart
TTITLE6=深呼吸
EXTD=YEAR: 2001
EXTT0=
EXTT1=
EXTT2=
EXTT3=
EXTT4=
EXTT5=
EXTT6=
PLAYORDER=
